<svg width="63" height="50" viewBox="0 0 63 50" fill="none" xmlns="http://www.w3.org/2000/svg">
<path d="M28.1061 20.2838C21.6827 22.281 11.3082 20.2399 11.216 11.3449C11.1239 2.44983 22.1961 7.74852 22.1961 7.74852L28.1061 20.2838Z" fill="#FFC250"/>
<path d="M14.3391 6.35426C18.8221 5.58608 22.2268 11.5265 25.9937 17.7232C29.7607 23.92 39.5697 26.3762 45.8373 21.165C52.1048 15.9539 54.7574 6.82713 47.0619 1.38317C39.3664 -4.06079 34.5625 8.29872 27.9375 8.63845C21.3127 8.97819 21.2643 4.05367 14.3391 6.35426Z" fill="#FFD064"/>
<circle cx="46.4126" cy="11.6219" r="1.96745" fill="#FFE19D"/>
<circle cx="42.6417" cy="13.0974" r="1.47559" fill="#FFE19D"/>
<circle cx="45.265" cy="15.0648" r="1.14768" fill="#FFE19D"/>
<path d="M2.28591 41.6C1.96591 41.6 1.68057 41.5307 1.42991 41.392C1.18457 41.248 0.992573 41.0533 0.853906 40.808C0.71524 40.5573 0.645906 40.272 0.645906 39.952C0.645906 39.6373 0.71524 39.3547 0.853906 39.104C0.992573 38.8533 1.18457 38.6587 1.42991 38.52C1.68057 38.376 1.96591 38.304 2.28591 38.304C2.60057 38.304 2.88057 38.376 3.12591 38.52C3.37657 38.6587 3.57124 38.8533 3.70991 39.104C3.84857 39.3547 3.91791 39.6373 3.91791 39.952C3.91791 40.272 3.84857 40.5573 3.70991 40.808C3.57124 41.0533 3.37657 41.248 3.12591 41.392C2.88057 41.5307 2.60057 41.6 2.28591 41.6ZM2.28591 41.272C2.66991 41.272 2.97924 41.1493 3.21391 40.904C3.44857 40.6587 3.56591 40.3413 3.56591 39.952C3.56591 39.568 3.44857 39.2533 3.21391 39.008C2.97924 38.7627 2.66991 38.64 2.28591 38.64C1.89657 38.64 1.58457 38.7627 1.34991 39.008C1.11524 39.2533 0.997906 39.568 0.997906 39.952C0.997906 40.3413 1.11524 40.6587 1.34991 40.904C1.58457 41.1493 1.89657 41.272 2.28591 41.272ZM1.62191 40.792V39.08H2.42191C2.59791 39.08 2.73924 39.128 2.84591 39.224C2.95257 39.32 3.00591 39.4507 3.00591 39.616C3.00591 39.8773 2.88057 40.0453 2.62991 40.12L3.07791 40.792H2.58191L2.18991 40.144H2.04591V40.792H1.62191ZM2.04591 39.824H2.36591C2.42457 39.824 2.47524 39.8107 2.51791 39.784C2.56057 39.752 2.58191 39.7013 2.58191 39.632C2.58191 39.568 2.56057 39.5227 2.51791 39.496C2.47524 39.4693 2.42457 39.456 2.36591 39.456H2.04591V39.824ZM6.88441 44V38.4H8.99641C9.57774 38.4 10.0177 38.536 10.3164 38.808C10.6151 39.08 10.7644 39.4213 10.7644 39.832C10.7644 40.1893 10.6684 40.4747 10.4764 40.688C10.2844 40.896 10.0524 41.0373 9.78041 41.112C9.99374 41.1547 10.1831 41.24 10.3484 41.368C10.5191 41.496 10.6524 41.656 10.7484 41.848C10.8444 42.04 10.8924 42.248 10.8924 42.472C10.8924 42.76 10.8204 43.0213 10.6764 43.256C10.5377 43.4853 10.3324 43.6667 10.0604 43.8C9.78841 43.9333 9.45507 44 9.06041 44H6.88441ZM7.73241 40.8H8.89241C9.21774 40.8 9.46574 40.7253 9.63641 40.576C9.80707 40.4213 9.89241 40.2107 9.89241 39.944C9.89241 39.6827 9.80707 39.4747 9.63641 39.32C9.47107 39.1653 9.21774 39.088 8.87641 39.088H7.73241V40.8ZM7.73241 43.304H8.94841C9.28974 43.304 9.55374 43.224 9.74041 43.064C9.93241 42.904 10.0284 42.68 10.0284 42.392C10.0284 42.104 9.92974 41.8773 9.73241 41.712C9.53507 41.5413 9.26841 41.456 8.93241 41.456H7.73241V43.304ZM13.1339 44.096C12.7979 44.096 12.5206 44.04 12.3019 43.928C12.0832 43.816 11.9206 43.6693 11.8139 43.488C11.7072 43.3013 11.6539 43.0987 11.6539 42.88C11.6539 42.496 11.8032 42.192 12.1019 41.968C12.4006 41.744 12.8272 41.632 13.3819 41.632H14.4219V41.56C14.4219 41.2507 14.3366 41.0187 14.1659 40.864C14.0006 40.7093 13.7846 40.632 13.5179 40.632C13.2832 40.632 13.0779 40.6907 12.9019 40.808C12.7312 40.92 12.6272 41.088 12.5899 41.312H11.7419C11.7686 41.024 11.8646 40.7787 12.0299 40.576C12.2006 40.368 12.4139 40.2107 12.6699 40.104C12.9312 39.992 13.2166 39.936 13.5259 39.936C14.0806 39.936 14.5099 40.0827 14.8139 40.376C15.1179 40.664 15.2699 41.0587 15.2699 41.56V44H14.5339L14.4619 43.32C14.3499 43.5387 14.1872 43.7227 13.9739 43.872C13.7606 44.0213 13.4806 44.096 13.1339 44.096ZM13.3019 43.408C13.5312 43.408 13.7232 43.3547 13.8779 43.248C14.0379 43.136 14.1606 42.9893 14.2459 42.808C14.3366 42.6267 14.3926 42.4267 14.4139 42.208H13.4699C13.1339 42.208 12.8939 42.2667 12.7499 42.384C12.6112 42.5013 12.5419 42.648 12.5419 42.824C12.5419 43.0053 12.6086 43.1493 12.7419 43.256C12.8806 43.3573 13.0672 43.408 13.3019 43.408ZM17.8445 44C17.4552 44 17.1459 43.9067 16.9165 43.72C16.6872 43.528 16.5725 43.1893 16.5725 42.704V40.744H15.8925V40.032H16.5725L16.6765 39.024H17.4205V40.032H18.5405V40.744H17.4205V42.704C17.4205 42.9227 17.4659 43.0747 17.5565 43.16C17.6525 43.24 17.8152 43.28 18.0445 43.28H18.5005V44H17.8445ZM20.7589 44.096C20.4229 44.096 20.1456 44.04 19.9269 43.928C19.7082 43.816 19.5456 43.6693 19.4389 43.488C19.3322 43.3013 19.2789 43.0987 19.2789 42.88C19.2789 42.496 19.4282 42.192 19.7269 41.968C20.0256 41.744 20.4522 41.632 21.0069 41.632H22.0469V41.56C22.0469 41.2507 21.9616 41.0187 21.7909 40.864C21.6256 40.7093 21.4096 40.632 21.1429 40.632C20.9082 40.632 20.7029 40.6907 20.5269 40.808C20.3562 40.92 20.2522 41.088 20.2149 41.312H19.3669C19.3936 41.024 19.4896 40.7787 19.6549 40.576C19.8256 40.368 20.0389 40.2107 20.2949 40.104C20.5562 39.992 20.8416 39.936 21.1509 39.936C21.7056 39.936 22.1349 40.0827 22.4389 40.376C22.7429 40.664 22.8949 41.0587 22.8949 41.56V44H22.1589L22.0869 43.32C21.9749 43.5387 21.8122 43.7227 21.5989 43.872C21.3856 44.0213 21.1056 44.096 20.7589 44.096ZM20.9269 43.408C21.1562 43.408 21.3482 43.3547 21.5029 43.248C21.6629 43.136 21.7856 42.9893 21.8709 42.808C21.9616 42.6267 22.0176 42.4267 22.0389 42.208H21.0949C20.7589 42.208 20.5189 42.2667 20.3749 42.384C20.2362 42.5013 20.1669 42.648 20.1669 42.824C20.1669 43.0053 20.2336 43.1493 20.3669 43.256C20.5056 43.3573 20.6922 43.408 20.9269 43.408ZM25.4695 44C25.0802 44 24.7709 43.9067 24.5415 43.72C24.3122 43.528 24.1975 43.1893 24.1975 42.704V40.744H23.5175V40.032H24.1975L24.3015 39.024H25.0455V40.032H26.1655V40.744H25.0455V42.704C25.0455 42.9227 25.0909 43.0747 25.1815 43.16C25.2775 43.24 25.4402 43.28 25.6695 43.28H26.1255V44H25.4695ZM28.3839 44.096C28.0479 44.096 27.7706 44.04 27.5519 43.928C27.3332 43.816 27.1706 43.6693 27.0639 43.488C26.9572 43.3013 26.9039 43.0987 26.9039 42.88C26.9039 42.496 27.0532 42.192 27.3519 41.968C27.6506 41.744 28.0772 41.632 28.6319 41.632H29.6719V41.56C29.6719 41.2507 29.5866 41.0187 29.4159 40.864C29.2506 40.7093 29.0346 40.632 28.7679 40.632C28.5332 40.632 28.3279 40.6907 28.1519 40.808C27.9812 40.92 27.8772 41.088 27.8399 41.312H26.9919C27.0186 41.024 27.1146 40.7787 27.2799 40.576C27.4506 40.368 27.6639 40.2107 27.9199 40.104C28.1812 39.992 28.4666 39.936 28.7759 39.936C29.3306 39.936 29.7599 40.0827 30.0639 40.376C30.3679 40.664 30.5199 41.0587 30.5199 41.56V44H29.7839L29.7119 43.32C29.5999 43.5387 29.4372 43.7227 29.2239 43.872C29.0106 44.0213 28.7306 44.096 28.3839 44.096ZM28.5519 43.408C28.7812 43.408 28.9732 43.3547 29.1279 43.248C29.2879 43.136 29.4106 42.9893 29.4959 42.808C29.5866 42.6267 29.6426 42.4267 29.6639 42.208H28.7199C28.3839 42.208 28.1439 42.2667 27.9999 42.384C27.8612 42.5013 27.7919 42.648 27.7919 42.824C27.7919 43.0053 27.8586 43.1493 27.9919 43.256C28.1306 43.3573 28.3172 43.408 28.5519 43.408ZM33.7407 44.096C33.4313 44.096 33.1567 44.0347 32.9167 43.912C32.682 43.7893 32.4953 43.616 32.3567 43.392L32.2687 44H31.5087V38.24H32.3567V40.648C32.4847 40.4613 32.6607 40.296 32.8847 40.152C33.1087 40.008 33.3967 39.936 33.7487 39.936C34.1327 39.936 34.4713 40.0267 34.7647 40.208C35.058 40.3893 35.2873 40.6373 35.4527 40.952C35.6233 41.2667 35.7087 41.624 35.7087 42.024C35.7087 42.424 35.6233 42.7813 35.4527 43.096C35.2873 43.4053 35.058 43.6507 34.7647 43.832C34.4713 44.008 34.13 44.096 33.7407 44.096ZM33.5967 43.36C33.9593 43.36 34.258 43.2373 34.4927 42.992C34.7273 42.7413 34.8447 42.416 34.8447 42.016C34.8447 41.7547 34.7913 41.5227 34.6847 41.32C34.578 41.1173 34.4313 40.96 34.2447 40.848C34.058 40.7307 33.842 40.672 33.5967 40.672C33.234 40.672 32.9353 40.7973 32.7007 41.048C32.4713 41.2987 32.3567 41.6213 32.3567 42.016C32.3567 42.416 32.4713 42.7413 32.7007 42.992C32.9353 43.2373 33.234 43.36 33.5967 43.36ZM37.1058 39.28C36.9458 39.28 36.8125 39.232 36.7058 39.136C36.6045 39.0347 36.5538 38.9093 36.5538 38.76C36.5538 38.6107 36.6045 38.488 36.7058 38.392C36.8125 38.2907 36.9458 38.24 37.1058 38.24C37.2658 38.24 37.3965 38.2907 37.4978 38.392C37.6045 38.488 37.6578 38.6107 37.6578 38.76C37.6578 38.9093 37.6045 39.0347 37.4978 39.136C37.3965 39.232 37.2658 39.28 37.1058 39.28ZM36.6818 44V40.032H37.5298V44H36.6818ZM40.3133 44C39.9239 44 39.6146 43.9067 39.3853 43.72C39.1559 43.528 39.0413 43.1893 39.0413 42.704V40.744H38.3613V40.032H39.0413L39.1453 39.024H39.8893V40.032H41.0093V40.744H39.8893V42.704C39.8893 42.9227 39.9346 43.0747 40.0253 43.16C40.1213 43.24 40.2839 43.28 40.5133 43.28H40.9693V44H40.3133ZM43.8193 44V43.392C44.1819 43.104 44.5286 42.8133 44.8593 42.52C45.1899 42.2267 45.4833 41.9387 45.7393 41.656C46.0006 41.368 46.2059 41.088 46.3553 40.816C46.5046 40.5387 46.5793 40.272 46.5793 40.016C46.5793 39.8453 46.5499 39.6853 46.4913 39.536C46.4326 39.3813 46.3366 39.2587 46.2033 39.168C46.0699 39.072 45.8913 39.024 45.6673 39.024C45.3313 39.024 45.0779 39.1307 44.9073 39.344C44.7419 39.5573 44.6619 39.8133 44.6673 40.112H43.8433C43.8486 39.7173 43.9313 39.3867 44.0913 39.12C44.2566 38.8533 44.4753 38.6507 44.7473 38.512C45.0246 38.3733 45.3366 38.304 45.6833 38.304C46.2113 38.304 46.6326 38.4533 46.9473 38.752C47.2673 39.0453 47.4273 39.456 47.4273 39.984C47.4273 40.2987 47.3499 40.6107 47.1953 40.92C47.0459 41.2293 46.8486 41.528 46.6033 41.816C46.3633 42.0987 46.1046 42.3653 45.8273 42.616C45.5499 42.8667 45.2859 43.0933 45.0353 43.296H47.5953V44H43.8193ZM50.6869 44.096C50.1802 44.096 49.7429 43.976 49.3749 43.736C49.0122 43.4907 48.7322 43.152 48.5349 42.72C48.3429 42.2827 48.2469 41.776 48.2469 41.2C48.2469 40.624 48.3429 40.12 48.5349 39.688C48.7322 39.2507 49.0122 38.912 49.3749 38.672C49.7429 38.4267 50.1802 38.304 50.6869 38.304C51.1936 38.304 51.6282 38.4267 51.9909 38.672C52.3536 38.912 52.6309 39.2507 52.8229 39.688C53.0202 40.12 53.1189 40.624 53.1189 41.2C53.1189 41.776 53.0202 42.2827 52.8229 42.72C52.6309 43.152 52.3536 43.4907 51.9909 43.736C51.6282 43.976 51.1936 44.096 50.6869 44.096ZM50.6869 43.336C50.9909 43.336 51.2602 43.2507 51.4949 43.08C51.7349 42.9093 51.9216 42.664 52.0549 42.344C52.1882 42.024 52.2549 41.6427 52.2549 41.2C52.2549 40.7573 52.1882 40.376 52.0549 40.056C51.9216 39.736 51.7349 39.4907 51.4949 39.32C51.2602 39.1493 50.9909 39.064 50.6869 39.064C50.3776 39.064 50.1056 39.1493 49.8709 39.32C49.6362 39.4907 49.4522 39.736 49.3189 40.056C49.1856 40.376 49.1189 40.7573 49.1189 41.2C49.1189 41.6427 49.1856 42.024 49.3189 42.344C49.4522 42.664 49.6362 42.9093 49.8709 43.08C50.1056 43.2507 50.3776 43.336 50.6869 43.336ZM53.8896 44V43.392C54.2523 43.104 54.5989 42.8133 54.9296 42.52C55.2603 42.2267 55.5536 41.9387 55.8096 41.656C56.0709 41.368 56.2763 41.088 56.4256 40.816C56.5749 40.5387 56.6496 40.272 56.6496 40.016C56.6496 39.8453 56.6203 39.6853 56.5616 39.536C56.5029 39.3813 56.4069 39.2587 56.2736 39.168C56.1403 39.072 55.9616 39.024 55.7376 39.024C55.4016 39.024 55.1483 39.1307 54.9776 39.344C54.8123 39.5573 54.7323 39.8133 54.7376 40.112H53.9136C53.9189 39.7173 54.0016 39.3867 54.1616 39.12C54.3269 38.8533 54.5456 38.6507 54.8176 38.512C55.0949 38.3733 55.4069 38.304 55.7536 38.304C56.2816 38.304 56.7029 38.4533 57.0176 38.752C57.3376 39.0453 57.4976 39.456 57.4976 39.984C57.4976 40.2987 57.4203 40.6107 57.2656 40.92C57.1163 41.2293 56.9189 41.528 56.6736 41.816C56.4336 42.0987 56.1749 42.3653 55.8976 42.616C55.6203 42.8667 55.3563 43.0933 55.1056 43.296H57.6656V44H53.8896ZM60.3717 44.096C60.0091 44.096 59.6784 44.032 59.3797 43.904C59.0864 43.7707 58.8517 43.5707 58.6757 43.304C58.4997 43.0373 58.4064 42.704 58.3957 42.304H59.2357C59.2464 42.6027 59.3477 42.856 59.5397 43.064C59.7371 43.2667 60.0144 43.368 60.3717 43.368C60.7131 43.368 60.9744 43.2747 61.1557 43.088C61.3371 42.896 61.4277 42.6587 61.4277 42.376C61.4277 42.0347 61.3051 41.7813 61.0597 41.616C60.8197 41.4507 60.5237 41.368 60.1717 41.368H59.7557V40.664H60.1797C60.4944 40.664 60.7477 40.5893 60.9397 40.44C61.1371 40.2907 61.2357 40.08 61.2357 39.808C61.2357 39.5787 61.1584 39.392 61.0037 39.248C60.8544 39.104 60.6411 39.032 60.3637 39.032C60.0757 39.032 59.8491 39.1173 59.6837 39.288C59.5184 39.4533 59.4277 39.6613 59.4117 39.912H58.5717C58.5824 39.5867 58.6624 39.304 58.8117 39.064C58.9664 38.824 59.1771 38.6373 59.4437 38.504C59.7104 38.3707 60.0171 38.304 60.3637 38.304C60.7371 38.304 61.0491 38.3707 61.2997 38.504C61.5557 38.632 61.7477 38.808 61.8757 39.032C62.0091 39.2507 62.0757 39.4907 62.0757 39.752C62.0757 40.0507 61.9931 40.312 61.8277 40.536C61.6624 40.76 61.4411 40.9093 61.1637 40.984C61.4837 41.0533 61.7477 41.2107 61.9557 41.456C62.1637 41.696 62.2677 42.008 62.2677 42.392C62.2677 42.7013 62.1957 42.9867 62.0517 43.248C61.9077 43.504 61.6944 43.7093 61.4117 43.864C61.1291 44.0187 60.7824 44.096 60.3717 44.096Z" fill="#FFE9D5"/>
</svg>
